<svg xmlns="http://www.w3.org/2000/svg" xmlns:xlink="http://www.w3.org/1999/xlink" viewBox="0 0 102.289 28.7"><defs><style>.a{fill:none;}.b{clip-path:url(#a);}.c,.d{fill:#fff;}.c{fill-rule:evenodd;}</style><clipPath id="a"><rect class="a" width="102.289" height="28.7"/></clipPath></defs><g class="b" transform="translate(0 0)"><g transform="translate(-122 -86.9)"><g transform="translate(50 48.024)"><path class="c" d="M.59,22.038C.8,14.688,3.031,7.022,9.953,4.109c6.134-2.59,13.913.481,16.022,6.808,1.951,5.845-1.759,12.513-7.525,13.012-5.233.455-8.2-2.748-8.077-6.974a5.086,5.086,0,0,1,5.137-4.839c-4.865,2.03-4.848,10.439,2.669,10,3.588-.21,7.132-4.226,5.854-8.978A9.117,9.117,0,0,0,13.007,6.55,11,11,0,0,0,6.234,21.688c2.914,6.668,11.839,9.468,19.435,4.384,5.417-3.623,7.8-11.752,4.874-18.98l-.21,3.308C26.544,2.253,20.348-1.571,12.315.573,3.88,2.822-1.965,11.958.59,22.038Z" transform="translate(72.015 38.89)"/><path class="d" d="M6.984-.3a5.541,5.541,0,0,1-2.4.445A4.049,4.049,0,0,1,1.541-.99,4.155,4.155,0,0,1,.434-4.02a4.439,4.439,0,0,1,1.245-3.27A4.355,4.355,0,0,1,4.91-8.543a6.043,6.043,0,0,1,2.074.311V-6.41a3.675,3.675,0,0,0-1.922-.5,2.549,2.549,0,0,0-1.91.744,2.761,2.761,0,0,0-.727,2.016,2.708,2.708,0,0,0,.686,1.942,2.422,2.422,0,0,0,1.846.724,3.937,3.937,0,0,0,2.027-.539Zm7.043.3H12.182V-3.41q0-1.318-.961-1.318a.984.984,0,0,0-.8.369,1.424,1.424,0,0,0-.3.938V0H8.268V-8.883h1.852v3.773h.023a2.1,2.1,0,0,1,1.846-1.037q2.039,0,2.039,2.461Zm6.457,0H18.732V-.861h-.023A1.955,1.955,0,0,1,16.922.146a1.869,1.869,0,0,1-1.374-.5,1.774,1.774,0,0,1-.5-1.321q0-1.746,2.068-2.016L18.744-3.9q0-.984-1.066-.984a3.64,3.64,0,0,0-2.039.639V-5.643A4.587,4.587,0,0,1,16.7-5.994a5.56,5.56,0,0,1,1.222-.152,2.266,2.266,0,0,1,2.566,2.561Zm-1.74-2.437v-.4l-1.09.141q-.9.117-.9.814a.673.673,0,0,0,.22.519.844.844,0,0,0,.595.2,1.1,1.1,0,0,0,.85-.36A1.3,1.3,0,0,0,18.744-2.437Zm1.289-6.311a1.928,1.928,0,0,1-.6,1.313,1.978,1.978,0,0,1-1.392.486,1.967,1.967,0,0,1-1.395-.5,1.766,1.766,0,0,1-.562-1.3h1.049a.828.828,0,0,0,.932.791.827.827,0,0,0,.914-.791ZM31.477,0H29.631V-3.422q0-1.307-.961-1.307a.883.883,0,0,0-.744.393,1.613,1.613,0,0,0-.287.979V0H25.787V-3.457q0-1.271-.943-1.271a.9.9,0,0,0-.759.375,1.65,1.65,0,0,0-.284,1.02V0H21.949V-6H23.8v.938h.023a2.214,2.214,0,0,1,.806-.782,2.214,2.214,0,0,1,1.134-.3A1.728,1.728,0,0,1,27.5-5.027,2.219,2.219,0,0,1,29.52-6.146q1.957,0,1.957,2.414Zm4.383-.158v-1.5a3.942,3.942,0,0,0,.911.41,3.021,3.021,0,0,0,.858.135,1.841,1.841,0,0,0,.776-.135.435.435,0,0,0,.284-.41.379.379,0,0,0-.129-.293,1.2,1.2,0,0,0-.331-.205,3.757,3.757,0,0,0-.442-.158q-.24-.07-.463-.158a4.435,4.435,0,0,1-.63-.29,1.821,1.821,0,0,1-.457-.36,1.416,1.416,0,0,1-.281-.475,1.894,1.894,0,0,1-.1-.639,1.644,1.644,0,0,1,.22-.867,1.8,1.8,0,0,1,.586-.595,2.677,2.677,0,0,1,.838-.34,4.369,4.369,0,0,1,.981-.108,5.446,5.446,0,0,1,.809.062,6.035,6.035,0,0,1,.809.179v1.43a2.922,2.922,0,0,0-.753-.308,3.176,3.176,0,0,0-.788-.1,1.746,1.746,0,0,0-.343.032,1.129,1.129,0,0,0-.284.094.522.522,0,0,0-.193.158.364.364,0,0,0-.07.22.406.406,0,0,0,.105.281.916.916,0,0,0,.275.2,2.719,2.719,0,0,0,.378.152q.208.067.413.138a5.371,5.371,0,0,1,.668.281,2.136,2.136,0,0,1,.513.357,1.4,1.4,0,0,1,.328.48,1.708,1.708,0,0,1,.114.656,1.712,1.712,0,0,1-.231.911,1.853,1.853,0,0,1-.615.615,2.79,2.79,0,0,1-.885.346,4.9,4.9,0,0,1-1.04.108A5.362,5.362,0,0,1,35.859-.158Zm8.531.3a3.225,3.225,0,0,1-2.358-.841,3.048,3.048,0,0,1-.858-2.282,3.048,3.048,0,0,1,.891-2.329,3.365,3.365,0,0,1,2.408-.841,3.186,3.186,0,0,1,2.344.841,2.989,2.989,0,0,1,.85,2.224A3.173,3.173,0,0,1,46.79-.721,3.261,3.261,0,0,1,44.391.146Zm.047-4.875a1.235,1.235,0,0,0-1.02.451A1.99,1.99,0,0,0,43.055-3q0,1.729,1.395,1.729,1.33,0,1.33-1.775Q45.779-4.729,44.438-4.729Zm1.986-4.113L44.59-6.949H43.254l1.523-1.893ZM53.408-.217A3.661,3.661,0,0,1,51.6.146a3.062,3.062,0,0,1-2.238-.838A2.894,2.894,0,0,1,48.5-2.854a3.188,3.188,0,0,1,.917-2.411,3.389,3.389,0,0,1,2.452-.882,3.146,3.146,0,0,1,1.535.281v1.57a2.111,2.111,0,0,0-1.295-.434,1.706,1.706,0,0,0-1.263.466,1.738,1.738,0,0,0-.466,1.286,1.71,1.71,0,0,0,.445,1.251,1.637,1.637,0,0,0,1.225.454,2.444,2.444,0,0,0,1.354-.434ZM6.791,13H4.57L2.654,10.023H2.631V13H.779V4.117H2.631V9.771h.023L4.441,7h2.2L4.488,9.818Zm6.457,0H11.4V9.59q0-1.318-.961-1.318a.984.984,0,0,0-.8.369,1.424,1.424,0,0,0-.3.938V13H7.488V4.117H9.34V7.891h.023a2.1,2.1,0,0,1,1.846-1.037q2.039,0,2.039,2.461Zm6.457,0H17.953v-.861H17.93a1.955,1.955,0,0,1-1.787,1.008,1.869,1.869,0,0,1-1.374-.5,1.774,1.774,0,0,1-.5-1.321q0-1.746,2.068-2.016L17.965,9.1q0-.984-1.066-.984a3.64,3.64,0,0,0-2.039.639V7.357a4.587,4.587,0,0,1,1.058-.352,5.56,5.56,0,0,1,1.222-.152,2.266,2.266,0,0,1,2.566,2.561Zm-1.74-2.437v-.4l-1.09.141q-.9.117-.9.814a.673.673,0,0,0,.22.519.844.844,0,0,0,.595.2,1.1,1.1,0,0,0,.85-.36A1.3,1.3,0,0,0,17.965,10.563Zm1.189-6.4L17.32,6.051H15.984l1.523-1.893Zm6.563,8.625a3.661,3.661,0,0,1-1.811.363,3.062,3.062,0,0,1-2.238-.838,2.894,2.894,0,0,1-.855-2.162,3.188,3.188,0,0,1,.917-2.411,3.389,3.389,0,0,1,2.452-.882,3.146,3.146,0,0,1,1.535.281v1.57a2.111,2.111,0,0,0-1.295-.434,1.706,1.706,0,0,0-1.263.466,1.738,1.738,0,0,0-.466,1.286,1.71,1.71,0,0,0,.445,1.251,1.637,1.637,0,0,0,1.225.454,2.444,2.444,0,0,0,1.354-.434ZM32.689,13H30.844V9.59q0-1.318-.961-1.318a.984.984,0,0,0-.8.369,1.424,1.424,0,0,0-.3.938V13H26.93V4.117h1.852V7.891H28.8A2.1,2.1,0,0,1,30.65,6.854q2.039,0,2.039,2.461Zm10.535,0H41.379V9.59q0-1.318-.961-1.318a.984.984,0,0,0-.8.369,1.424,1.424,0,0,0-.3.938V13H37.465V4.117h1.852V7.891h.023a2.1,2.1,0,0,1,1.846-1.037q2.039,0,2.039,2.461Zm6.457,0H47.93v-.861h-.023a1.955,1.955,0,0,1-1.787,1.008,1.869,1.869,0,0,1-1.374-.5,1.774,1.774,0,0,1-.5-1.321q0-1.746,2.068-2.016L47.941,9.1q0-.984-1.066-.984a3.64,3.64,0,0,0-2.039.639V7.357a4.587,4.587,0,0,1,1.058-.352,5.56,5.56,0,0,1,1.222-.152,2.266,2.266,0,0,1,2.566,2.561Zm-1.74-2.437v-.4l-1.09.141q-.9.117-.9.814a.673.673,0,0,0,.22.519.844.844,0,0,0,.595.2,1.1,1.1,0,0,0,.85-.36A1.3,1.3,0,0,0,47.941,10.563Zm.51-4.512h-1.33l-1.84-1.893h1.646ZM56.941,13H55.1V9.666q0-1.395-1-1.395a.988.988,0,0,0-.791.369A1.406,1.406,0,0,0,53,9.578V13H51.146V7H53v.949h.023a2.122,2.122,0,0,1,1.928-1.1q1.992,0,1.992,2.473Zm7.348-.686a3.4,3.4,0,0,1-.967,2.587,3.918,3.918,0,0,1-2.8.917,4.44,4.44,0,0,1-1.922-.346V13.914a3.68,3.68,0,0,0,1.869.539,2.013,2.013,0,0,0,1.453-.5,1.777,1.777,0,0,0,.516-1.345v-.475h-.023a2.068,2.068,0,0,1-1.869,1.008,2.248,2.248,0,0,1-1.822-.809,3.279,3.279,0,0,1-.674-2.168,3.652,3.652,0,0,1,.75-2.42,2.449,2.449,0,0,1,1.975-.9,1.822,1.822,0,0,1,1.641.844h.023V7h1.852Zm-1.828-2.2V9.643a1.458,1.458,0,0,0-.337-.97,1.09,1.09,0,0,0-.876-.4,1.133,1.133,0,0,0-.967.48,2.259,2.259,0,0,0-.352,1.354,1.907,1.907,0,0,0,.334,1.187,1.088,1.088,0,0,0,.914.437,1.133,1.133,0,0,0,.929-.442A1.814,1.814,0,0,0,62.461,10.117Z" transform="translate(110 50.976)"/></g></g></g></svg>