<svg xmlns="http://www.w3.org/2000/svg" viewBox="0 0 104 29.6"><defs><style>.a,.b{fill:#fff;}.a{fill-rule:evenodd;}.b{font-size:12px;font-family:SegoeUI-Bold, Segoe UI;font-weight:700;}</style></defs><g transform="translate(-72 -37.976)"><path class="a" d="M.59,22.038C.8,14.688,3.031,7.022,9.953,4.109c6.134-2.59,13.913.481,16.022,6.808,1.951,5.845-1.759,12.513-7.525,13.012-5.233.455-8.2-2.748-8.077-6.974a5.086,5.086,0,0,1,5.137-4.839c-4.865,2.03-4.848,10.439,2.669,10,3.588-.21,7.132-4.226,5.854-8.978A9.117,9.117,0,0,0,13.007,6.55,11,11,0,0,0,6.234,21.688c2.914,6.668,11.839,9.468,19.435,4.384,5.417-3.623,7.8-11.752,4.874-18.98l-.21,3.308C26.544,2.253,20.348-1.571,12.315.573,3.88,2.822-1.965,11.958.59,22.038Z" transform="translate(72.015 38.89)"/><text class="b" transform="translate(110 50.976)"><tspan x="0" y="0">Chăm sóc</tspan><tspan x="0" y="13">khách hàng</tspan></text></g></svg>